<svg width="758" height="268" viewBox="0 0 758 268" fill="none" xmlns="http://www.w3.org/2000/svg">
<rect x="0.0150146" width="757.97" height="267.761" rx="41.194" fill="#AFAFAF" fill-opacity="0.15"/>
<rect x="14.4327" y="14.4178" width="729.134" height="239.591" rx="25.9018" fill="#AFAFAF" fill-opacity="0.5"/>
<rect x="37.3858" y="33.2514" width="685.101" height="200.739" rx="19.4263" fill="#DD4D4D" stroke="url(#paint0_linear_3001_11386)" stroke-width="12.9509"/>
<path d="M246.994 111.458V92.1796H258.414V94.9777H249.792V100.413H256.807V103.225H249.792V111.458H246.994ZM261.094 94.6296V91.9118H263.892V94.6296H261.094ZM261.094 111.458V96.9993H263.892V111.458H261.094ZM278.061 111.458V104.349C278.061 103.787 278.012 103.211 277.913 102.622C277.824 102.024 277.646 101.471 277.378 100.962C277.119 100.453 276.749 100.043 276.267 99.7304C275.794 99.418 275.173 99.2619 274.406 99.2619C273.906 99.2619 273.433 99.3466 272.987 99.5162C272.54 99.6769 272.148 99.9402 271.808 100.306C271.478 100.672 271.215 101.154 271.019 101.752C270.831 102.35 270.737 103.077 270.737 103.934L268.997 103.278C268.997 101.966 269.242 100.81 269.733 99.8108C270.224 98.8022 270.929 98.0168 271.849 97.4545C272.768 96.8922 273.879 96.611 275.182 96.611C276.182 96.611 277.021 96.7717 277.699 97.093C278.378 97.4143 278.926 97.8383 279.346 98.3649C279.774 98.8825 280.1 99.4493 280.323 100.065C280.546 100.681 280.698 101.283 280.778 101.873C280.859 102.462 280.899 102.979 280.899 103.426V111.458H278.061ZM267.899 111.458V96.9993H270.403V101.176H270.737V111.458H267.899ZM289.947 111.86C288.599 111.86 287.434 111.525 286.452 110.856C285.479 110.187 284.725 109.276 284.19 108.125C283.663 106.964 283.4 105.661 283.4 104.215C283.4 102.761 283.668 101.462 284.203 100.32C284.739 99.1681 285.497 98.2622 286.479 97.6017C287.47 96.9323 288.643 96.5976 290 96.5976C291.366 96.5976 292.513 96.9323 293.441 97.6017C294.378 98.2622 295.083 99.1681 295.556 100.32C296.038 101.471 296.279 102.77 296.279 104.215C296.279 105.661 296.038 106.96 295.556 108.111C295.074 109.263 294.365 110.178 293.427 110.856C292.49 111.525 291.33 111.86 289.947 111.86ZM290.335 109.33C291.254 109.33 292.004 109.111 292.584 108.674C293.164 108.236 293.588 107.634 293.856 106.866C294.124 106.099 294.258 105.215 294.258 104.215C294.258 103.216 294.119 102.332 293.843 101.565C293.575 100.797 293.155 100.199 292.584 99.7706C292.022 99.3422 291.303 99.128 290.429 99.128C289.5 99.128 288.737 99.3556 288.139 99.8108C287.541 100.266 287.095 100.877 286.8 101.645C286.515 102.413 286.372 103.269 286.372 104.215C286.372 105.17 286.515 106.036 286.8 106.813C287.095 107.58 287.532 108.192 288.112 108.647C288.701 109.102 289.442 109.33 290.335 109.33ZM294.258 111.458V101.056H293.936V92.1796H296.748V111.458H294.258ZM305.854 111.458V92.1796H308.384L315.373 106.679L322.321 92.1796H324.879V111.445H322.228V98.2577L316.002 111.458H314.73L308.492 98.2577V111.458H305.854ZM335.042 111.86C333.605 111.86 332.342 111.548 331.254 110.923C330.174 110.289 329.33 109.41 328.723 108.285C328.125 107.152 327.826 105.84 327.826 104.349C327.826 102.77 328.121 101.399 328.71 100.239C329.308 99.0789 330.138 98.1819 331.2 97.5482C332.262 96.9145 333.498 96.5976 334.909 96.5976C336.381 96.5976 337.635 96.9413 338.671 97.6285C339.706 98.3068 340.478 99.2752 340.987 100.534C341.504 101.792 341.71 103.287 341.603 105.019H338.804V104.001C338.787 102.323 338.465 101.083 337.84 100.279C337.225 99.4761 336.283 99.0744 335.016 99.0744C333.614 99.0744 332.561 99.5162 331.856 100.4C331.151 101.283 330.798 102.56 330.798 104.229C330.798 105.818 331.151 107.049 331.856 107.924C332.561 108.79 333.579 109.223 334.909 109.223C335.783 109.223 336.537 109.026 337.171 108.633C337.814 108.232 338.314 107.661 338.671 106.92L341.415 107.79C340.853 109.084 340 110.088 338.858 110.802C337.716 111.507 336.444 111.86 335.042 111.86ZM329.888 105.019V102.836H340.21V105.019H329.888ZM350.35 111.86C349.002 111.86 347.837 111.525 346.855 110.856C345.883 110.187 345.128 109.276 344.593 108.125C344.066 106.964 343.803 105.661 343.803 104.215C343.803 102.761 344.071 101.462 344.606 100.32C345.142 99.1681 345.9 98.2622 346.882 97.6017C347.873 96.9323 349.047 96.5976 350.403 96.5976C351.769 96.5976 352.916 96.9323 353.844 97.6017C354.781 98.2622 355.486 99.1681 355.959 100.32C356.441 101.471 356.682 102.77 356.682 104.215C356.682 105.661 356.441 106.96 355.959 108.111C355.477 109.263 354.768 110.178 353.831 110.856C352.893 111.525 351.733 111.86 350.35 111.86ZM350.738 109.33C351.657 109.33 352.407 109.111 352.987 108.674C353.567 108.236 353.991 107.634 354.259 106.866C354.527 106.099 354.661 105.215 354.661 104.215C354.661 103.216 354.522 102.332 354.246 101.565C353.978 100.797 353.558 100.199 352.987 99.7706C352.425 99.3422 351.706 99.128 350.832 99.128C349.903 99.128 349.14 99.3556 348.542 99.8108C347.944 100.266 347.498 100.877 347.204 101.645C346.918 102.413 346.775 103.269 346.775 104.215C346.775 105.17 346.918 106.036 347.204 106.813C347.498 107.58 347.935 108.192 348.516 108.647C349.105 109.102 349.845 109.33 350.738 109.33ZM354.661 111.458V101.056H354.339V92.1796H357.151V111.458H354.661ZM361.165 94.6296V91.9118H363.963V94.6296H361.165ZM361.165 111.458V96.9993H363.963V111.458H361.165ZM374.168 111.86C372.687 111.86 371.428 111.53 370.393 110.869C369.358 110.209 368.563 109.303 368.01 108.152C367.465 107 367.189 105.693 367.18 104.229C367.189 102.738 367.474 101.422 368.037 100.279C368.599 99.128 369.402 98.2265 370.446 97.575C371.491 96.9234 372.745 96.5976 374.209 96.5976C375.788 96.5976 377.136 96.9903 378.252 97.7758C379.376 98.5612 380.117 99.6367 380.474 101.002L377.689 101.806C377.413 100.993 376.958 100.364 376.324 99.9179C375.699 99.4627 374.981 99.2351 374.168 99.2351C373.249 99.2351 372.495 99.4537 371.906 99.8911C371.317 100.32 370.879 100.909 370.594 101.658C370.308 102.408 370.161 103.265 370.152 104.229C370.161 105.719 370.5 106.924 371.169 107.844C371.848 108.763 372.847 109.223 374.168 109.223C375.07 109.223 375.797 109.017 376.351 108.607C376.913 108.187 377.341 107.589 377.636 106.813L380.474 107.482C380.001 108.892 379.22 109.977 378.131 110.735C377.042 111.485 375.721 111.86 374.168 111.86ZM387.102 111.86C386.031 111.86 385.134 111.664 384.411 111.271C383.688 110.869 383.139 110.343 382.764 109.691C382.398 109.031 382.215 108.308 382.215 107.522C382.215 106.79 382.345 106.148 382.603 105.594C382.862 105.041 383.246 104.572 383.755 104.189C384.264 103.796 384.888 103.479 385.629 103.238C386.272 103.051 386.999 102.886 387.811 102.743C388.624 102.6 389.476 102.466 390.369 102.341C391.27 102.216 392.163 102.091 393.046 101.966L392.029 102.529C392.047 101.395 391.806 100.556 391.306 100.012C390.815 99.4582 389.967 99.1815 388.762 99.1815C388.003 99.1815 387.307 99.36 386.673 99.717C386.04 100.065 385.598 100.645 385.348 101.457L382.737 100.654C383.094 99.4136 383.773 98.4273 384.772 97.6954C385.781 96.9636 387.12 96.5976 388.789 96.5976C390.083 96.5976 391.208 96.8208 392.163 97.267C393.126 97.7044 393.832 98.4006 394.278 99.3556C394.51 99.8286 394.653 100.328 394.706 100.855C394.76 101.382 394.787 101.948 394.787 102.555V111.458H392.31V108.152L392.792 108.58C392.194 109.687 391.431 110.512 390.502 111.057C389.583 111.592 388.45 111.86 387.102 111.86ZM387.597 109.571C388.392 109.571 389.074 109.432 389.646 109.156C390.217 108.87 390.676 108.509 391.025 108.071C391.373 107.634 391.6 107.179 391.707 106.706C391.859 106.277 391.944 105.795 391.962 105.26C391.988 104.724 392.002 104.296 392.002 103.974L392.912 104.309C392.029 104.443 391.225 104.564 390.502 104.671C389.779 104.778 389.123 104.885 388.534 104.992C387.954 105.09 387.437 105.211 386.981 105.353C386.598 105.487 386.254 105.648 385.95 105.835C385.656 106.023 385.419 106.25 385.241 106.518C385.071 106.786 384.987 107.112 384.987 107.496C384.987 107.87 385.08 108.218 385.268 108.54C385.455 108.852 385.741 109.102 386.125 109.29C386.508 109.477 386.999 109.571 387.597 109.571ZM398.531 111.458V91.7779H401.329V111.458H398.531ZM417.698 111.86C416.315 111.86 415.065 111.623 413.95 111.15C412.843 110.668 411.928 109.986 411.205 109.102C410.491 108.21 410.027 107.152 409.813 105.929L412.731 105.487C413.026 106.665 413.642 107.585 414.579 108.245C415.516 108.897 416.609 109.223 417.859 109.223C418.636 109.223 419.35 109.102 420.001 108.861C420.653 108.611 421.175 108.259 421.568 107.803C421.969 107.339 422.17 106.786 422.17 106.143C422.17 105.795 422.108 105.487 421.983 105.22C421.867 104.952 421.701 104.72 421.487 104.523C421.282 104.318 421.028 104.144 420.724 104.001C420.43 103.849 420.104 103.72 419.747 103.613L414.807 102.154C414.325 102.011 413.834 101.828 413.334 101.605C412.834 101.373 412.374 101.074 411.955 100.708C411.544 100.333 411.21 99.8732 410.951 99.3288C410.692 98.7754 410.563 98.106 410.563 97.3206C410.563 96.1335 410.866 95.1294 411.473 94.3083C412.089 93.4782 412.919 92.8534 413.963 92.4339C415.007 92.0055 416.177 91.7913 417.471 91.7913C418.774 91.8092 419.939 92.0412 420.965 92.4875C422 92.9338 422.857 93.5764 423.536 94.4154C424.223 95.2454 424.696 96.254 424.955 97.4411L421.956 97.9498C421.822 97.2269 421.536 96.6066 421.099 96.0889C420.662 95.5623 420.126 95.1606 419.492 94.884C418.859 94.5983 418.171 94.4511 417.431 94.4421C416.717 94.4243 416.061 94.5314 415.463 94.7635C414.873 94.9955 414.4 95.3213 414.043 95.7408C413.695 96.1603 413.521 96.6423 413.521 97.1867C413.521 97.7222 413.677 98.1551 413.99 98.4853C414.302 98.8156 414.686 99.0789 415.141 99.2752C415.605 99.4627 416.065 99.6189 416.52 99.7438L420.081 100.748C420.528 100.873 421.032 101.042 421.594 101.257C422.166 101.462 422.714 101.752 423.241 102.127C423.777 102.502 424.218 103.002 424.566 103.626C424.915 104.242 425.089 105.019 425.089 105.956C425.089 106.929 424.892 107.786 424.5 108.526C424.107 109.258 423.567 109.874 422.88 110.374C422.201 110.865 421.416 111.235 420.523 111.485C419.631 111.735 418.689 111.86 417.698 111.86ZM434.355 111.86C432.918 111.86 431.655 111.548 430.566 110.923C429.486 110.289 428.642 109.41 428.035 108.285C427.437 107.152 427.138 105.84 427.138 104.349C427.138 102.77 427.433 101.399 428.022 100.239C428.62 99.0789 429.45 98.1819 430.512 97.5482C431.574 96.9145 432.811 96.5976 434.221 96.5976C435.693 96.5976 436.947 96.9413 437.983 97.6285C439.018 98.3068 439.79 99.2752 440.299 100.534C440.817 101.792 441.022 103.287 440.915 105.019H438.117V104.001C438.099 102.323 437.777 101.083 437.153 100.279C436.537 99.4761 435.595 99.0744 434.328 99.0744C432.927 99.0744 431.873 99.5162 431.168 100.4C430.463 101.283 430.111 102.56 430.111 104.229C430.111 105.818 430.463 107.049 431.168 107.924C431.873 108.79 432.891 109.223 434.221 109.223C435.095 109.223 435.85 109.026 436.483 108.633C437.126 108.232 437.626 107.661 437.983 106.92L440.727 107.79C440.165 109.084 439.313 110.088 438.17 110.802C437.028 111.507 435.756 111.86 434.355 111.86ZM429.2 105.019V102.836H439.522V105.019H429.2ZM443.918 111.458V96.9993H446.409V100.507L446.061 100.052C446.239 99.5876 446.471 99.1637 446.757 98.7799C447.042 98.3872 447.373 98.0659 447.747 97.8159C448.113 97.5482 448.52 97.3429 448.966 97.2001C449.421 97.0484 449.885 96.9591 450.358 96.9323C450.831 96.8966 451.286 96.9189 451.724 96.9993V99.6233C451.251 99.4984 450.724 99.4627 450.144 99.5162C449.573 99.5698 449.046 99.7527 448.564 100.065C448.109 100.36 447.747 100.717 447.48 101.136C447.221 101.556 447.033 102.024 446.917 102.542C446.801 103.051 446.743 103.591 446.743 104.162V111.458H443.918ZM458.183 111.458L452.934 96.9993H455.759L459.602 107.951L463.444 96.9993H466.269L461.021 111.458H458.183ZM468.949 94.6296V91.9118H471.747V94.6296H468.949ZM468.949 111.458V96.9993H471.747V111.458H468.949ZM481.953 111.86C480.471 111.86 479.213 111.53 478.177 110.869C477.142 110.209 476.348 109.303 475.794 108.152C475.25 107 474.973 105.693 474.964 104.229C474.973 102.738 475.259 101.422 475.821 100.279C476.383 99.128 477.187 98.2265 478.231 97.575C479.275 96.9234 480.529 96.5976 481.993 96.5976C483.573 96.5976 484.92 96.9903 486.036 97.7758C487.161 98.5612 487.901 99.6367 488.258 101.002L485.474 101.806C485.197 100.993 484.742 100.364 484.108 99.9179C483.483 99.4627 482.765 99.2351 481.953 99.2351C481.033 99.2351 480.279 99.4537 479.69 99.8911C479.101 100.32 478.664 100.909 478.378 101.658C478.092 102.408 477.945 103.265 477.936 104.229C477.945 105.719 478.284 106.924 478.954 107.844C479.632 108.763 480.632 109.223 481.953 109.223C482.854 109.223 483.582 109.017 484.135 108.607C484.697 108.187 485.126 107.589 485.42 106.813L488.258 107.482C487.785 108.892 487.004 109.977 485.916 110.735C484.827 111.485 483.506 111.86 481.953 111.86ZM497.007 111.86C495.57 111.86 494.307 111.548 493.218 110.923C492.138 110.289 491.294 109.41 490.687 108.285C490.089 107.152 489.79 105.84 489.79 104.349C489.79 102.77 490.085 101.399 490.674 100.239C491.272 99.0789 492.102 98.1819 493.164 97.5482C494.226 96.9145 495.462 96.5976 496.873 96.5976C498.345 96.5976 499.599 96.9413 500.635 97.6285C501.67 98.3068 502.442 99.2752 502.951 100.534C503.468 101.792 503.674 103.287 503.567 105.019H500.769V104.001C500.751 102.323 500.429 101.083 499.805 100.279C499.189 99.4761 498.247 99.0744 496.98 99.0744C495.578 99.0744 494.525 99.5162 493.82 100.4C493.115 101.283 492.763 102.56 492.763 104.229C492.763 105.818 493.115 107.049 493.82 107.924C494.525 108.79 495.543 109.223 496.873 109.223C497.747 109.223 498.502 109.026 499.135 108.633C499.778 108.232 500.278 107.661 500.635 106.92L503.379 107.79C502.817 109.084 501.965 110.088 500.822 110.802C499.68 111.507 498.408 111.86 497.007 111.86ZM491.852 105.019V102.836H502.174V105.019H491.852ZM512.1 111.847C510.341 111.847 508.909 111.458 507.802 110.682C506.695 109.905 506.017 108.812 505.767 107.402L508.632 106.96C508.811 107.71 509.221 108.303 509.864 108.741C510.515 109.169 511.323 109.383 512.287 109.383C513.162 109.383 513.845 109.205 514.335 108.848C514.835 108.491 515.085 108 515.085 107.375C515.085 107.009 514.996 106.715 514.817 106.491C514.648 106.259 514.286 106.041 513.733 105.835C513.18 105.63 512.336 105.376 511.203 105.072C509.962 104.751 508.976 104.407 508.244 104.041C507.521 103.667 507.003 103.234 506.691 102.743C506.387 102.243 506.236 101.64 506.236 100.935C506.236 100.061 506.468 99.2976 506.932 98.646C507.396 97.9944 508.048 97.4902 508.887 97.1331C509.734 96.7761 510.725 96.5976 511.859 96.5976C512.965 96.5976 513.952 96.7717 514.817 97.1198C515.683 97.4679 516.384 97.9632 516.919 98.6058C517.455 99.2395 517.776 99.9848 517.883 100.842L515.018 101.364C514.92 100.668 514.594 100.119 514.041 99.717C513.488 99.3154 512.769 99.0967 511.885 99.061C511.038 99.0253 510.35 99.1681 509.824 99.4894C509.297 99.8018 509.034 100.235 509.034 100.788C509.034 101.109 509.132 101.382 509.328 101.605C509.534 101.828 509.926 102.042 510.506 102.247C511.087 102.453 511.943 102.698 513.077 102.984C514.291 103.296 515.255 103.644 515.969 104.028C516.683 104.403 517.192 104.854 517.495 105.38C517.807 105.898 517.964 106.527 517.964 107.268C517.964 108.696 517.442 109.816 516.397 110.628C515.362 111.441 513.929 111.847 512.1 111.847ZM526.286 111.458V92.1796H529.125L538.617 106.505V92.1796H541.455V111.458H538.617L529.125 97.1198V111.458H526.286ZM551.605 111.86C550.168 111.86 548.905 111.548 547.816 110.923C546.736 110.289 545.892 109.41 545.286 108.285C544.688 107.152 544.389 105.84 544.389 104.349C544.389 102.77 544.683 101.399 545.272 100.239C545.87 99.0789 546.7 98.1819 547.762 97.5482C548.824 96.9145 550.061 96.5976 551.471 96.5976C552.944 96.5976 554.198 96.9413 555.233 97.6285C556.268 98.3068 557.04 99.2752 557.549 100.534C558.067 101.792 558.272 103.287 558.165 105.019H555.367V104.001C555.349 102.323 555.028 101.083 554.403 100.279C553.787 99.4761 552.845 99.0744 551.578 99.0744C550.177 99.0744 549.123 99.5162 548.418 100.4C547.713 101.283 547.361 102.56 547.361 104.229C547.361 105.818 547.713 107.049 548.418 107.924C549.123 108.79 550.141 109.223 551.471 109.223C552.346 109.223 553.1 109.026 553.733 108.633C554.376 108.232 554.876 107.661 555.233 106.92L557.977 107.79C557.415 109.084 556.563 110.088 555.42 110.802C554.278 111.507 553.006 111.86 551.605 111.86ZM546.45 105.019V102.836H556.773V105.019H546.45ZM564.99 111.86C563.919 111.86 563.022 111.664 562.299 111.271C561.577 110.869 561.028 110.343 560.653 109.691C560.287 109.031 560.104 108.308 560.104 107.522C560.104 106.79 560.233 106.148 560.492 105.594C560.751 105.041 561.135 104.572 561.643 104.189C562.152 103.796 562.777 103.479 563.518 103.238C564.16 103.051 564.888 102.886 565.7 102.743C566.512 102.6 567.365 102.466 568.257 102.341C569.159 102.216 570.051 102.091 570.935 101.966L569.917 102.529C569.935 101.395 569.694 100.556 569.194 100.012C568.703 99.4582 567.856 99.1815 566.651 99.1815C565.892 99.1815 565.196 99.36 564.562 99.717C563.928 100.065 563.487 100.645 563.237 101.457L560.626 100.654C560.983 99.4136 561.661 98.4273 562.661 97.6954C563.67 96.9636 565.008 96.5976 566.677 96.5976C567.972 96.5976 569.096 96.8208 570.051 97.267C571.015 97.7044 571.72 98.4006 572.166 99.3556C572.399 99.8286 572.541 100.328 572.595 100.855C572.648 101.382 572.675 101.948 572.675 102.555V111.458H570.198V108.152L570.68 108.58C570.082 109.687 569.319 110.512 568.391 111.057C567.472 111.592 566.338 111.86 564.99 111.86ZM565.486 109.571C566.28 109.571 566.963 109.432 567.534 109.156C568.105 108.87 568.565 108.509 568.913 108.071C569.261 107.634 569.489 107.179 569.596 106.706C569.748 106.277 569.832 105.795 569.85 105.26C569.877 104.724 569.89 104.296 569.89 103.974L570.801 104.309C569.917 104.443 569.114 104.564 568.391 104.671C567.668 104.778 567.012 104.885 566.423 104.992C565.843 105.09 565.325 105.211 564.87 105.353C564.486 105.487 564.143 105.648 563.839 105.835C563.545 106.023 563.308 106.25 563.13 106.518C562.96 106.786 562.875 107.112 562.875 107.496C562.875 107.87 562.969 108.218 563.156 108.54C563.344 108.852 563.629 109.102 564.013 109.29C564.397 109.477 564.888 109.571 565.486 109.571ZM576.152 111.458V96.9993H578.642V100.507L578.294 100.052C578.472 99.5876 578.704 99.1637 578.99 98.7799C579.276 98.3872 579.606 98.0659 579.981 97.8159C580.347 97.5482 580.753 97.3429 581.199 97.2001C581.654 97.0484 582.118 96.9591 582.591 96.9323C583.064 96.8966 583.52 96.9189 583.957 96.9993V99.6233C583.484 99.4984 582.957 99.4627 582.377 99.5162C581.806 99.5698 581.279 99.7527 580.797 100.065C580.342 100.36 579.981 100.717 579.713 101.136C579.454 101.556 579.267 102.024 579.151 102.542C579.035 103.051 578.977 103.591 578.977 104.162V111.458H576.152ZM596.513 111.458V103.492L589.993 92.1796H593.259L597.932 100.279L602.604 92.1796H605.871L599.351 103.492V111.458H596.513ZM611.874 111.86C610.428 111.86 609.174 111.534 608.112 110.883C607.05 110.231 606.229 109.334 605.649 108.192C605.077 107.04 604.792 105.715 604.792 104.215C604.792 102.707 605.086 101.382 605.675 100.239C606.264 99.0878 607.09 98.1953 608.152 97.5616C609.214 96.9189 610.455 96.5976 611.874 96.5976C613.32 96.5976 614.574 96.9234 615.636 97.575C616.698 98.2265 617.519 99.1235 618.099 100.266C618.68 101.408 618.97 102.725 618.97 104.215C618.97 105.724 618.675 107.054 618.086 108.205C617.506 109.348 616.685 110.245 615.623 110.896C614.561 111.539 613.311 111.86 611.874 111.86ZM611.874 109.223C613.257 109.223 614.288 108.758 614.967 107.83C615.654 106.893 615.997 105.688 615.997 104.215C615.997 102.707 615.649 101.502 614.953 100.601C614.266 99.6903 613.24 99.2351 611.874 99.2351C610.937 99.2351 610.165 99.4493 609.558 99.8777C608.951 100.297 608.5 100.882 608.206 101.632C607.911 102.372 607.764 103.234 607.764 104.215C607.764 105.733 608.112 106.947 608.808 107.857C609.504 108.767 610.526 109.223 611.874 109.223ZM627.361 111.847C626.361 111.847 625.522 111.686 624.844 111.365C624.165 111.043 623.612 110.624 623.184 110.106C622.764 109.58 622.443 109.008 622.22 108.393C621.996 107.777 621.845 107.174 621.764 106.585C621.684 105.996 621.644 105.478 621.644 105.032V96.9993H624.482V104.108C624.482 104.671 624.527 105.251 624.616 105.849C624.714 106.438 624.893 106.987 625.152 107.496C625.419 108.004 625.79 108.415 626.263 108.727C626.745 109.04 627.37 109.196 628.137 109.196C628.637 109.196 629.11 109.115 629.556 108.955C630.003 108.785 630.391 108.517 630.721 108.152C631.06 107.786 631.323 107.304 631.511 106.706C631.707 106.108 631.805 105.38 631.805 104.523L633.546 105.179C633.546 106.491 633.3 107.652 632.81 108.66C632.319 109.66 631.614 110.441 630.694 111.003C629.775 111.565 628.664 111.847 627.361 111.847ZM632.14 111.458V107.281H631.805V96.9993H634.63V111.458H632.14ZM644.013 111.458V92.1796H646.812V111.458H644.013ZM660.98 111.458V104.349C660.98 103.787 660.931 103.211 660.833 102.622C660.744 102.024 660.565 101.471 660.297 100.962C660.038 100.453 659.668 100.043 659.186 99.7304C658.713 99.418 658.093 99.2619 657.325 99.2619C656.825 99.2619 656.352 99.3466 655.906 99.5162C655.46 99.6769 655.067 99.9402 654.728 100.306C654.398 100.672 654.134 101.154 653.938 101.752C653.751 102.35 653.657 103.077 653.657 103.934L651.916 103.278C651.916 101.966 652.162 100.81 652.653 99.8108C653.144 98.8022 653.849 98.0168 654.768 97.4545C655.687 96.8922 656.799 96.611 658.102 96.611C659.101 96.611 659.94 96.7717 660.619 97.093C661.297 97.4143 661.846 97.8383 662.265 98.3649C662.694 98.8825 663.02 99.4493 663.243 100.065C663.466 100.681 663.618 101.283 663.698 101.873C663.778 102.462 663.818 102.979 663.818 103.426V111.458H660.98ZM650.819 111.458V96.9993H653.322V101.176H653.657V111.458H650.819Z" fill="white"/>
<path d="M249.445 177.28V132.791H278.178V139.773H256.891V150.741H274.47V157.724H256.891V170.298H278.178V177.28H249.445ZM327.515 177.28V157.013C327.515 154.727 326.949 152.945 325.816 151.668C324.683 150.37 323.149 149.722 321.213 149.722C320.018 149.722 318.947 150 318 150.556C317.052 151.091 316.3 151.895 315.744 152.966C315.188 154.016 314.91 155.272 314.91 156.735L311.604 154.788C311.584 152.482 312.098 150.453 313.149 148.702C314.22 146.931 315.662 145.551 317.474 144.562C319.287 143.573 321.305 143.079 323.53 143.079C327.217 143.079 330.038 144.191 331.995 146.416C333.972 148.62 334.961 151.524 334.961 155.128V177.28H327.515ZM287.382 177.28V143.913H293.963V154.263H294.89V177.28H287.382ZM307.495 177.28V157.106C307.495 154.778 306.929 152.966 305.796 151.668C304.663 150.37 303.118 149.722 301.161 149.722C299.267 149.722 297.742 150.37 296.589 151.668C295.456 152.966 294.89 154.655 294.89 156.735L291.553 154.51C291.553 152.348 292.088 150.401 293.16 148.671C294.231 146.941 295.672 145.582 297.485 144.593C299.318 143.584 301.367 143.079 303.633 143.079C306.125 143.079 308.206 143.615 309.874 144.686C311.563 145.736 312.819 147.178 313.643 149.011C314.488 150.824 314.91 152.873 314.91 155.159V177.28H307.495ZM359.5 178.207C356.122 178.207 353.156 177.476 350.602 176.014C348.048 174.551 346.05 172.522 344.608 169.927C343.187 167.332 342.476 164.345 342.476 160.968C342.476 157.322 343.177 154.16 344.577 151.483C345.978 148.784 347.924 146.694 350.417 145.211C352.909 143.728 355.792 142.986 359.067 142.986C362.528 142.986 365.463 143.8 367.873 145.427C370.303 147.034 372.105 149.31 373.279 152.255C374.453 155.2 374.896 158.671 374.608 162.667H367.224V159.948C367.203 156.323 366.565 153.676 365.308 152.008C364.052 150.339 362.075 149.505 359.376 149.505C356.328 149.505 354.062 150.453 352.579 152.348C351.096 154.222 350.355 156.972 350.355 160.597C350.355 163.975 351.096 166.591 352.579 168.444C354.062 170.298 356.225 171.225 359.067 171.225C360.901 171.225 362.476 170.823 363.794 170.02C365.133 169.196 366.163 168.012 366.884 166.467L374.237 168.691C372.96 171.699 370.983 174.036 368.305 175.705C365.648 177.373 362.713 178.207 359.5 178.207ZM348.007 162.667V157.044H370.962V162.667H348.007ZM383.355 177.28V143.913H389.936V152.039L389.133 150.988C389.545 149.876 390.09 148.867 390.77 147.961C391.47 147.034 392.305 146.272 393.273 145.674C394.096 145.118 395.003 144.686 395.991 144.377C397.001 144.047 398.03 143.851 399.081 143.79C400.131 143.707 401.151 143.748 402.14 143.913V150.865C401.151 150.576 400.008 150.484 398.71 150.587C397.433 150.69 396.28 151.05 395.25 151.668C394.22 152.224 393.376 152.935 392.716 153.8C392.078 154.665 391.604 155.654 391.295 156.766C390.986 157.857 390.832 159.042 390.832 160.319V177.28H383.355ZM422.709 193.037C420.855 193.037 419.073 192.749 417.364 192.172C415.675 191.595 414.151 190.761 412.791 189.67C411.432 188.598 410.32 187.301 409.455 185.777L416.313 182.378C416.952 183.593 417.848 184.489 419.001 185.066C420.175 185.663 421.421 185.962 422.74 185.962C424.284 185.962 425.664 185.684 426.88 185.128C428.095 184.592 429.032 183.789 429.691 182.718C430.371 181.668 430.69 180.349 430.649 178.763V169.278H431.576V143.913H438.095V178.887C438.095 179.731 438.054 180.535 437.971 181.297C437.909 182.08 437.796 182.842 437.631 183.583C437.137 185.746 436.19 187.517 434.789 188.897C433.388 190.298 431.648 191.338 429.568 192.018C427.508 192.697 425.222 193.037 422.709 193.037ZM422.06 178.207C418.991 178.207 416.313 177.435 414.027 175.89C411.741 174.345 409.97 172.244 408.713 169.587C407.457 166.93 406.828 163.934 406.828 160.597C406.828 157.219 407.457 154.212 408.713 151.575C409.99 148.918 411.792 146.828 414.12 145.304C416.447 143.759 419.187 142.986 422.338 142.986C425.51 142.986 428.167 143.759 430.309 145.304C432.472 146.828 434.109 148.918 435.221 151.575C436.334 154.232 436.89 157.24 436.89 160.597C436.89 163.913 436.334 166.91 435.221 169.587C434.109 172.244 432.451 174.345 430.247 175.89C428.043 177.435 425.314 178.207 422.06 178.207ZM423.203 171.534C425.201 171.534 426.808 171.081 428.023 170.174C429.259 169.248 430.155 167.96 430.711 166.312C431.287 164.665 431.576 162.759 431.576 160.597C431.576 158.414 431.287 156.508 430.711 154.881C430.155 153.233 429.279 151.956 428.085 151.05C426.89 150.123 425.345 149.66 423.45 149.66C421.452 149.66 419.805 150.154 418.507 151.143C417.209 152.111 416.252 153.429 415.634 155.097C415.016 156.745 414.707 158.578 414.707 160.597C414.707 162.636 415.005 164.49 415.603 166.158C416.221 167.806 417.158 169.114 418.414 170.082C419.671 171.05 421.267 171.534 423.203 171.534ZM463.782 178.207C460.404 178.207 457.438 177.476 454.884 176.014C452.33 174.551 450.332 172.522 448.89 169.927C447.469 167.332 446.759 164.345 446.759 160.968C446.759 157.322 447.459 154.16 448.859 151.483C450.26 148.784 452.206 146.694 454.699 145.211C457.191 143.728 460.074 142.986 463.349 142.986C466.81 142.986 469.745 143.8 472.155 145.427C474.585 147.034 476.387 149.31 477.561 152.255C478.735 155.2 479.178 158.671 478.89 162.667H471.506V159.948C471.485 156.323 470.847 153.676 469.59 152.008C468.334 150.339 466.357 149.505 463.658 149.505C460.61 149.505 458.344 150.453 456.861 152.348C455.378 154.222 454.637 156.972 454.637 160.597C454.637 163.975 455.378 166.591 456.861 168.444C458.344 170.298 460.507 171.225 463.349 171.225C465.183 171.225 466.758 170.823 468.076 170.02C469.415 169.196 470.445 168.012 471.166 166.467L478.519 168.691C477.242 171.699 475.265 174.036 472.587 175.705C469.93 177.373 466.995 178.207 463.782 178.207ZM452.289 162.667V157.044H475.244V162.667H452.289ZM509.811 177.28V161.215C509.811 160.164 509.739 159.001 509.595 157.724C509.451 156.447 509.111 155.221 508.575 154.047C508.06 152.852 507.278 151.874 506.227 151.112C505.197 150.35 503.797 149.969 502.025 149.969C501.078 149.969 500.141 150.123 499.214 150.432C498.287 150.741 497.442 151.277 496.68 152.039C495.939 152.78 495.342 153.81 494.888 155.128C494.435 156.426 494.209 158.094 494.209 160.133L489.791 158.249C489.791 155.406 490.336 152.832 491.428 150.525C492.54 148.218 494.168 146.385 496.31 145.025C498.452 143.645 501.088 142.955 504.219 142.955C506.691 142.955 508.73 143.367 510.336 144.191C511.943 145.015 513.22 146.066 514.167 147.343C515.115 148.62 515.815 149.979 516.268 151.421C516.721 152.863 517.01 154.232 517.133 155.53C517.277 156.807 517.349 157.847 517.349 158.65V177.28H509.811ZM486.67 177.28V143.913H493.313V154.263H494.209V177.28H486.67ZM541.212 178.207C537.773 178.207 534.838 177.445 532.407 175.921C529.977 174.376 528.113 172.275 526.815 169.618C525.538 166.961 524.889 163.954 524.869 160.597C524.889 157.178 525.559 154.15 526.877 151.514C528.216 148.857 530.111 146.776 532.562 145.273C535.013 143.748 537.927 142.986 541.305 142.986C545.095 142.986 548.298 143.944 550.914 145.86C553.55 147.755 555.27 150.35 556.073 153.645L548.658 155.654C548.082 153.862 547.124 152.471 545.785 151.483C544.446 150.473 542.922 149.969 541.212 149.969C539.276 149.969 537.68 150.432 536.424 151.359C535.167 152.265 534.24 153.522 533.643 155.128C533.046 156.735 532.747 158.558 532.747 160.597C532.747 163.769 533.458 166.333 534.879 168.29C536.3 170.247 538.411 171.225 541.212 171.225C543.19 171.225 544.745 170.772 545.878 169.865C547.031 168.959 547.896 167.651 548.473 165.942L556.073 167.641C555.043 171.04 553.241 173.655 550.666 175.488C548.092 177.301 544.94 178.207 541.212 178.207ZM567.298 192.11L573.725 174.469L573.848 179.659L559.296 143.913H567.051L577.37 170.36H575.393L585.434 143.913H592.88L574.281 192.11H567.298Z" fill="white"/>
<path d="M173.148 78.3393C175.569 78.6101 177.886 79.3513 179.964 80.5205C182.043 81.6897 183.844 83.264 185.264 85.1535C186.684 87.0431 187.695 89.2108 188.24 91.5329C188.785 93.855 188.852 96.2859 188.439 98.687M175.664 63.717C180.021 64.2049 184.19 65.5392 187.931 67.6436C191.672 69.7481 194.913 72.5815 197.469 75.9821C200.024 79.3827 201.844 83.2839 202.825 87.4629C203.805 91.6419 203.928 96.0169 203.184 100.338M170.003 96.6224L170.026 96.6531" stroke="white" stroke-width="4.58092" stroke-linecap="round" stroke-linejoin="round"/>
<path d="M186.229 122.71C186.229 116.569 185.019 110.488 182.669 104.815C180.319 99.1409 176.875 93.9857 172.532 89.6433C168.19 85.3009 163.035 81.8563 157.361 79.5063C151.687 77.1562 145.606 75.9466 139.465 75.9466C133.324 75.9466 127.243 77.1562 121.57 79.5063C115.896 81.8563 110.741 85.3009 106.399 89.6433C102.056 93.9857 98.6115 99.1409 96.2614 104.815C93.9114 110.488 92.7018 116.569 92.7018 122.71C92.7018 131.976 95.4341 140.594 100.084 147.862H100.03L139.465 209.557L178.9 147.862H178.854C183.67 140.357 186.23 131.627 186.229 122.71ZM139.465 142.752C134.15 142.752 129.052 140.64 125.294 136.882C121.535 133.123 119.424 128.026 119.424 122.71C119.424 117.395 121.535 112.297 125.294 108.539C129.052 104.78 134.15 102.669 139.465 102.669C144.781 102.669 149.878 104.78 153.637 108.539C157.395 112.297 159.507 117.395 159.507 122.71C159.507 128.026 157.395 133.123 153.637 136.882C149.878 140.64 144.781 142.752 139.465 142.752Z" fill="white"/>
<circle cx="139.465" cy="122.138" r="36.6474" fill="#FFDBDB"/>
<path d="M151.001 100.555C154.497 100.555 157.456 101.894 159.881 104.574C162.306 107.253 163.517 110.486 163.515 114.274C163.515 115.385 163.394 116.493 163.152 117.598C162.91 118.702 162.522 119.77 161.989 120.802H148.166L143.383 113.373H140.884L136.403 127.071L132.133 120.802H116.939C116.408 119.77 116.02 118.71 115.776 117.622C115.536 116.535 115.416 115.442 115.416 114.343C115.416 110.508 116.616 107.251 119.018 104.574C121.419 101.896 124.367 100.556 127.863 100.555C129.69 100.555 131.449 100.927 133.138 101.672C134.825 102.414 136.334 103.491 137.667 104.902L139.465 106.805L141.162 105.006C142.518 103.56 144.048 102.456 145.753 101.696C147.458 100.935 149.207 100.555 151.001 100.555ZM139.399 144.924L120.215 125.606C119.88 125.272 119.557 124.927 119.247 124.572C118.939 124.221 118.657 123.855 118.4 123.474H130.701L135.617 130.868H138.103L142.53 117.104L146.785 123.474H160.517C160.26 123.845 159.978 124.206 159.67 124.559C159.362 124.912 159.045 125.256 158.719 125.59L139.399 144.924Z" fill="#DD4D4D"/>
<defs>
<linearGradient id="paint0_linear_3001_11386" x1="30.9104" y1="42.7141" x2="654.879" y2="242.673" gradientUnits="userSpaceOnUse">
<stop stop-color="#B9B8B8"/>
<stop offset="0.638885" stop-color="#DE0000"/>
<stop offset="1" stop-color="#BEBEBE"/>
</linearGradient>
</defs>
</svg>
