<svg width="18" height="16" viewBox="0 0 18 16" fill="none" xmlns="http://www.w3.org/2000/svg">
<path d="M1 4L8.01333 9.26C8.30548 9.47928 8.6488 9.5963 9 9.5963C9.3512 9.5963 9.69452 9.47928 9.98667 9.26L17 4M2.77778 15H15.2222C15.6937 15 16.1459 14.7893 16.4793 14.4142C16.8127 14.0391 17 13.5304 17 13V3C17 2.46957 16.8127 1.96086 16.4793 1.58579C16.1459 1.21071 15.6937 1 15.2222 1H2.77778C2.30628 1 1.8541 1.21071 1.5207 1.58579C1.1873 1.96086 1 2.46957 1 3V13C1 13.5304 1.1873 14.0391 1.5207 14.4142C1.8541 14.7893 2.30628 15 2.77778 15Z" stroke="#6B7280" stroke-width="1.5" stroke-linecap="round" stroke-linejoin="round"/>
</svg>
