<svg width="20" height="20" viewBox="0 0 20 20" fill="none" xmlns="http://www.w3.org/2000/svg">
<path d="M19.8672 8.43048L17.8734 4.44142C17.8 4.2946 17.6983 4.16368 17.5743 4.05615C17.4502 3.94861 17.3062 3.86657 17.1505 3.81469C16.9947 3.76282 16.8303 3.74214 16.6665 3.75383C16.5028 3.76552 16.3429 3.80935 16.1961 3.88283L14.2531 4.85392L10.1602 3.77111C10.0551 3.74378 9.94487 3.74378 9.83984 3.77111L5.74688 4.85392L3.80391 3.88283C3.6571 3.80935 3.49725 3.76552 3.3335 3.75383C3.16974 3.74214 3.00529 3.76282 2.84953 3.81469C2.69377 3.86657 2.54976 3.94861 2.42571 4.05615C2.30166 4.16368 2.20001 4.2946 2.12656 4.44142L0.132813 8.4297C0.0593408 8.57651 0.0155082 8.73636 0.00381794 8.90011C-0.00787231 9.06386 0.0128088 9.22832 0.0646802 9.38408C0.116552 9.53983 0.198597 9.68385 0.306132 9.8079C0.413666 9.93195 0.544583 10.0336 0.691406 10.107L2.80078 11.1625L7.13594 14.2586C7.19985 14.304 7.27164 14.3371 7.34766 14.3563L12.3477 15.6063C12.4524 15.6325 12.5621 15.6312 12.6661 15.6025C12.7702 15.5737 12.865 15.5185 12.9414 15.4422L17.2437 11.1391L19.3078 10.107C19.6041 9.95871 19.8294 9.69878 19.9342 9.3844C20.0389 9.07001 20.0145 8.7269 19.8664 8.43048H19.8672ZM15.5789 11.0375L12.8906 8.88439C12.7702 8.78794 12.6183 8.73945 12.4643 8.74825C12.3103 8.75705 12.1649 8.82251 12.0563 8.93205C10.6648 10.3336 9.11406 10.1563 8.125 9.53126L11.5031 6.25001H13.9883L16.1141 10.5008L15.5789 11.0375ZM3.24453 5.00001L4.84375 5.79845L2.84609 9.78673L1.25 8.98908L3.24453 5.00001ZM12.307 14.307L7.76719 13.1727L3.92344 10.4274L6.11094 6.05236L10 5.02189L10.7656 5.22423L7.25 8.63673L7.24375 8.64376C7.11141 8.7761 7.01048 8.93647 6.9484 9.11303C6.88632 9.28959 6.86468 9.47784 6.88508 9.66388C6.90547 9.84992 6.96738 10.029 7.06624 10.1879C7.1651 10.3468 7.29838 10.4815 7.45625 10.582C9.0625 11.6078 11.0008 11.4414 12.5273 10.1914L14.6875 11.9266L12.307 14.307ZM17.1508 9.78595L15.157 5.80158L16.7555 5.00001L18.75 8.98908L17.1508 9.78595ZM10.2953 17.0258C10.2615 17.1609 10.1836 17.2808 10.074 17.3666C9.96427 17.4524 9.82908 17.499 9.68984 17.4992C9.63849 17.4993 9.58732 17.493 9.5375 17.4805L6.28203 16.6664C6.2059 16.6476 6.13404 16.6145 6.07031 16.5688L4.01172 15.0985C3.88514 14.9991 3.80178 14.8547 3.77899 14.6954C3.7562 14.5361 3.79573 14.3741 3.88937 14.2432C3.983 14.1123 4.12352 14.0226 4.28165 13.9927C4.43978 13.9629 4.60335 13.9951 4.73828 14.0828L6.7 15.4844L9.84375 16.2688C10.0045 16.309 10.1427 16.4114 10.228 16.5535C10.3133 16.6956 10.3386 16.8658 10.2984 17.0266L10.2953 17.0258Z" fill="#6B7280"/>
</svg>
