<svg width="19" height="18" viewBox="0 0 19 18" fill="none" xmlns="http://www.w3.org/2000/svg">
<path d="M8.84824 1.61886C9.10529 0.793713 10.2217 0.793713 10.4779 1.61886L11.7794 5.80642C11.8354 5.98604 11.9443 6.14255 12.0905 6.25358C12.2367 6.36461 12.4127 6.42447 12.5934 6.42461H16.8046C17.6349 6.42461 17.9793 7.53556 17.3084 8.04624L13.9017 10.6337C13.7554 10.7449 13.6465 10.9017 13.5906 11.0817C13.5347 11.2616 13.5348 11.4554 13.5907 11.6353L14.8914 15.8229C15.1484 16.6489 14.2445 17.3352 13.5736 16.8245L10.1669 14.2371C10.0205 14.1258 9.84409 14.0658 9.66307 14.0658C9.48206 14.0658 9.30569 14.1258 9.15927 14.2371L5.75258 16.8245C5.08169 17.3352 4.17775 16.648 4.4348 15.8229L5.73544 11.6353C5.79137 11.4554 5.7914 11.2616 5.73553 11.0817C5.67966 10.9017 5.57075 10.7449 5.42442 10.6337L2.01772 8.04624C1.34598 7.53556 1.69213 6.42461 2.52153 6.42461H6.73191C6.91274 6.42466 7.08895 6.36489 7.23531 6.25384C7.38167 6.1428 7.49069 5.98619 7.54674 5.80642L8.84824 1.61886Z" stroke="#6B7280" stroke-width="1.5" stroke-linecap="round" stroke-linejoin="round"/>
</svg>
