<svg width="81" height="81" viewBox="0 0 81 81" fill="none" xmlns="http://www.w3.org/2000/svg">
<path d="M12.482 0.428711C9.28523 0.428711 6.21936 1.69864 3.95888 3.95912C1.69839 6.2196 0.428467 9.28548 0.428467 12.4823V59.0894C0.428467 62.2862 1.69839 65.3521 3.95888 67.6126C6.21936 69.8731 9.28523 71.143 12.482 71.143H38.566C37.7569 69.6093 37.1157 67.9928 36.6535 66.3216H12.482C10.564 66.3216 8.72443 65.5596 7.36814 64.2033C6.01185 62.847 5.2499 61.0075 5.2499 59.0894V12.4823C5.2499 10.5642 6.01185 8.72468 7.36814 7.36839C8.72443 6.0121 10.564 5.25014 12.482 5.25014H59.0892C61.0073 5.25014 62.8468 6.0121 64.2031 7.36839C65.5594 8.72468 66.3213 10.5642 66.3213 12.4823V36.6537C67.9926 37.116 69.6091 37.7572 71.1428 38.5662V12.4823C71.1428 9.28548 69.8728 6.2196 67.6123 3.95912C65.3519 1.69864 62.286 0.428711 59.0892 0.428711H12.482ZM36.2774 55.0201C36.6808 53.0655 37.3254 51.1684 38.1963 49.3726V38.1966C38.1963 37.5572 37.9423 36.944 37.4902 36.4919C37.0381 36.0398 36.425 35.7859 35.7856 35.7859C35.1462 35.7859 34.5331 36.0398 34.081 36.4919C33.6289 36.944 33.3749 37.5572 33.3749 38.1966V52.6609C33.375 53.0191 33.455 53.3728 33.6089 53.6963C33.7629 54.0197 33.987 54.3048 34.265 54.5308C34.543 54.7568 34.8679 54.9179 35.216 55.0026C35.5641 55.0872 35.9267 55.0932 36.2774 55.0201ZM50.2499 37.7916C51.7983 37.1138 53.4146 36.6031 55.0713 36.268V18.9109C55.0713 18.2715 54.8173 17.6583 54.3652 17.2062C53.9131 16.7541 53.3 16.5001 52.6606 16.5001C52.0212 16.5001 51.4081 16.7541 50.956 17.2062C50.5039 17.6583 50.2499 18.2715 50.2499 18.9109V37.7916ZM21.3213 28.5537C21.3213 27.9143 21.0673 27.3012 20.6152 26.8491C20.1631 26.397 19.55 26.143 18.9106 26.143C18.2712 26.143 17.6581 26.397 17.206 26.8491C16.7539 27.3012 16.4999 27.9143 16.4999 28.5537V52.6609C16.4999 53.3002 16.7539 53.9134 17.206 54.3655C17.6581 54.8176 18.2712 55.0716 18.9106 55.0716C19.55 55.0716 20.1631 54.8176 20.6152 54.3655C21.0673 53.9134 21.3213 53.3002 21.3213 52.6609V28.5537ZM80.7856 59.893C80.7856 65.4341 78.5844 70.7483 74.6662 74.6665C70.7481 78.5846 65.4339 80.7859 59.8927 80.7859C54.3516 80.7859 49.0374 78.5846 45.1193 74.6665C41.2011 70.7483 38.9999 65.4341 38.9999 59.893C38.9999 54.3519 41.2011 49.0377 45.1193 45.1195C49.0374 41.2013 54.3516 39.0001 59.8927 39.0001C65.4339 39.0001 70.7481 41.2013 74.6662 45.1195C78.5844 49.0377 80.7856 54.3519 80.7856 59.893ZM72.2806 50.7194C72.1313 50.5698 71.954 50.451 71.7587 50.37C71.5635 50.289 71.3541 50.2473 71.1428 50.2473C70.9314 50.2473 70.722 50.289 70.5268 50.37C70.3315 50.451 70.1542 50.5698 70.0049 50.7194L55.0713 65.6562L49.7806 60.3623C49.6312 60.2129 49.4538 60.0943 49.2586 60.0135C49.0633 59.9326 48.8541 59.891 48.6427 59.891C48.4314 59.891 48.2222 59.9326 48.0269 60.0135C47.8317 60.0943 47.6543 60.2129 47.5049 60.3623C47.3555 60.5117 47.2369 60.6891 47.1561 60.8843C47.0752 61.0796 47.0336 61.2888 47.0336 61.5001C47.0336 61.7115 47.0752 61.9207 47.1561 62.1159C47.2369 62.3112 47.3555 62.4886 47.5049 62.638L53.9335 69.0666C54.0828 69.2162 54.2601 69.335 54.4554 69.416C54.6506 69.497 54.8599 69.5387 55.0713 69.5387C55.2827 69.5387 55.492 69.497 55.6873 69.416C55.8825 69.335 56.0599 69.2162 56.2092 69.0666L72.2806 52.9951C72.4303 52.8458 72.549 52.6685 72.63 52.4732C72.7111 52.278 72.7528 52.0687 72.7528 51.8573C72.7528 51.6459 72.7111 51.4366 72.63 51.2413C72.549 51.0461 72.4303 50.8687 72.2806 50.7194Z" fill="#635BFF"/>
</svg>
