<svg width="14" height="14" viewBox="0 0 14 14" fill="none" xmlns="http://www.w3.org/2000/svg">
<g clip-path="url(#clip0_2811_1042)">
<path d="M4.61278 11.2449H4.0489V5.98059L6.82688 2.02794C6.98164 1.80809 7.20582 1.64666 7.4634 1.56959C7.72097 1.49252 7.99698 1.50429 8.24706 1.603C8.49714 1.70172 8.70677 1.88165 8.84225 2.11387C8.97774 2.3461 9.03121 2.61713 8.99407 2.88341L8.78619 4.38095H10.6167C11.417 4.38095 13.0185 5.18123 13.0185 6.78178C13.0185 8.38234 11.4087 12.0452 9.70605 12.0452C7.46435 12.0452 5.54644 11.5117 4.61278 11.2449ZM1.51929 5.77362C1.51929 5.07452 2.08592 4.50881 2.7841 4.50881C3.48319 4.50881 4.0489 5.07544 4.0489 5.77362V11.0628C4.0489 11.7619 3.48227 12.3276 2.7841 12.3276C2.085 12.3276 1.51929 11.761 1.51929 11.0628V5.77362Z" stroke="white" stroke-width="1.1" stroke-linecap="round" stroke-linejoin="round"/>
</g>
<defs>
<clipPath id="clip0_2811_1042">
<rect width="12.878" height="12.878" fill="white" transform="translate(0.829346 0.829102)"/>
</clipPath>
</defs>
</svg>
