<svg width="14" height="14" viewBox="0 0 14 14" fill="none" xmlns="http://www.w3.org/2000/svg">
<g clip-path="url(#clip0_2811_1046)">
<path d="M9.38722 2.75505H9.9511V8.01941L7.17312 11.9721C7.01836 12.1919 6.79418 12.3533 6.5366 12.4304C6.27903 12.5075 6.00302 12.4957 5.75294 12.397C5.50286 12.2983 5.29323 12.1184 5.15775 11.8861C5.02226 11.6539 4.96879 11.3829 5.00593 11.1166L5.21381 9.61905H3.38329C2.58301 9.61905 0.981535 8.81877 0.981535 7.21822C0.981535 5.61766 2.59129 1.95477 4.29395 1.95477C6.53565 1.95477 8.45356 2.48829 9.38722 2.75505ZM12.4807 8.22638C12.4807 8.92548 11.9141 9.49119 11.2159 9.49119C10.5168 9.49119 9.9511 8.92456 9.9511 8.22638V2.93718C9.9511 2.23809 10.5177 1.67238 11.2159 1.67238C11.915 1.67238 12.4807 2.23901 12.4807 2.93718V8.22638Z" stroke="white" stroke-width="1.1" stroke-linecap="round" stroke-linejoin="round"/>
</g>
<defs>
<clipPath id="clip0_2811_1046">
<rect width="12.878" height="12.878" fill="white" transform="matrix(-1 0 0 -1 13.1707 13.1709)"/>
</clipPath>
</defs>
</svg>
