<svg width="90" height="90" viewBox="0 0 90 90" fill="none" xmlns="http://www.w3.org/2000/svg">
<g clip-path="url(#clip0_2607_11330)">
<path d="M2.62761 47.6646H10.1394C11.4348 64.8354 25.2015 78.6391 42.3353 79.9345V87.3354C42.3353 88.8155 43.4828 90 44.963 90C46.4801 90 47.6276 88.8155 47.6276 87.3354V79.9345C64.7614 78.6391 78.5281 64.8354 79.8235 47.663H87.3353C87.6856 47.6647 88.0327 47.597 88.3566 47.4638C88.6806 47.3306 88.9749 47.1345 89.2227 46.8869C89.4705 46.6393 89.6667 46.3451 89.8001 46.0212C89.9335 45.6974 90.0014 45.3503 89.9999 45C89.9999 43.5198 88.8155 42.3723 87.3353 42.3723H79.8235C78.5281 25.2016 64.7614 11.3979 47.6276 10.1025V2.66464C47.6276 1.18446 46.4785 0 44.963 0C43.4828 0 42.3353 1.18446 42.3353 2.66464V10.1025C25.2015 11.3979 11.4348 25.2016 10.1394 42.3739H2.62761C1.14743 42.3723 0.160645 43.5182 0.160645 45C0.160645 46.4818 1.14743 47.6646 2.62761 47.6646ZM44.963 30.383C46.4801 30.383 47.6276 29.1986 47.6276 27.7184V16.1357C61.5422 17.3925 72.3471 28.3098 73.5701 42.3723H62.2815C60.803 42.3723 59.6169 43.5198 59.6169 45C59.6169 46.4802 60.8014 47.6646 62.2815 47.6646H73.5701C72.3487 61.6902 61.5422 72.6075 47.6276 73.8659V62.2816C47.6276 60.803 46.4801 59.6539 44.963 59.6539C43.4828 59.6539 42.3353 60.8014 42.3353 62.2816V73.8659C28.4206 72.6075 17.6158 61.6902 16.3944 47.6646H27.6814C29.1599 47.6646 30.346 46.4802 30.346 45C30.346 43.5198 29.1615 42.3723 27.6814 42.3723H16.3928C17.6142 28.3098 28.419 17.3925 42.3337 16.1357V27.7184C42.3337 29.197 43.4828 30.383 44.963 30.383Z" fill="#635BFF"/>
</g>
<defs>
<clipPath id="clip0_2607_11330">
<rect width="90" height="90" fill="white"/>
</clipPath>
</defs>
</svg>
