<svg width="90" height="90" viewBox="0 0 90 90" fill="none" xmlns="http://www.w3.org/2000/svg">
<path d="M21.135 21.1352C18.001 24.2692 15.5149 27.9898 13.8188 32.0846C12.1227 36.1793 11.2498 40.5681 11.2498 45.0002C11.2498 49.4323 12.1227 53.8211 13.8188 57.9158C15.5149 62.0106 18.001 65.7312 21.135 68.8652C24.269 71.9992 27.9896 74.4852 32.0843 76.1813C36.1791 77.8774 40.5678 78.7504 45 78.7504C49.4321 78.7504 53.8208 77.8774 57.9156 76.1813C62.0104 74.4852 65.731 71.9992 68.865 68.8652M21.135 21.1352C24.269 18.0012 27.9896 15.5152 32.0843 13.8191C36.1791 12.123 40.5678 11.25 45 11.25C49.4321 11.25 53.8208 12.123 57.9156 13.8191C62.0104 15.5152 65.731 18.0012 68.865 21.1352C71.999 24.2692 74.485 27.9898 76.1811 32.0846C77.8772 36.1793 78.7502 40.5681 78.7502 45.0002C78.7502 49.4323 77.8772 53.8211 76.1811 57.9158C74.485 62.0106 71.999 65.7312 68.865 68.8652M21.135 21.1352L45 45.0002L68.865 68.8652" stroke="#635BFF" stroke-width="3" stroke-linecap="round" stroke-linejoin="round"/>
</svg>
