<svg width="90" height="90" viewBox="0 0 90 90" fill="none" xmlns="http://www.w3.org/2000/svg">
<path fill-rule="evenodd" clip-rule="evenodd" d="M11.418 43.7819C11.418 62.0459 24.66 74.4899 39.534 77.0639C39.9386 77.134 40.3254 77.2832 40.6724 77.5028C41.0194 77.7224 41.3197 78.0082 41.5562 78.3439C41.7927 78.6796 41.9608 79.0586 42.0508 79.4592C42.1409 79.8598 42.1511 80.2743 42.081 80.6789C42.0109 81.0835 41.8618 81.4703 41.6421 81.8173C41.4225 82.1643 41.1367 82.4646 40.801 82.7011C40.4653 82.9376 40.0863 83.1057 39.6857 83.1957C39.2851 83.2858 38.8706 83.296 38.466 83.2259C21 80.2019 5.16602 65.4779 5.16602 43.7819C5.16602 34.5599 9.36001 27.3119 14.256 21.8039C17.766 17.8559 21.78 14.6459 25.008 12.1919H15.192C14.3964 12.1919 13.6333 11.8758 13.0707 11.3132C12.5081 10.7506 12.192 9.98754 12.192 9.19189C12.192 8.39625 12.5081 7.63318 13.0707 7.07057C13.6333 6.50797 14.3964 6.19189 15.192 6.19189H33.192C33.9877 6.19189 34.7507 6.50797 35.3133 7.07057C35.8759 7.63318 36.192 8.39625 36.192 9.19189V27.1919C36.192 27.9875 35.8759 28.7506 35.3133 29.3132C34.7507 29.8758 33.9877 30.1919 33.192 30.1919C32.3964 30.1919 31.6333 29.8758 31.0707 29.3132C30.5081 28.7506 30.192 27.9875 30.192 27.1919V16.1159L30.186 16.1279C26.754 18.7079 22.566 21.8699 18.936 25.9559C14.646 30.7799 11.418 36.6179 11.418 43.7819ZM78.066 46.2119C78.066 28.1399 65.106 15.7739 50.424 13.0139C50.0148 12.9445 49.6235 12.7942 49.273 12.572C48.9225 12.3497 48.6197 12.0599 48.3824 11.7194C48.145 11.3789 47.9779 10.9945 47.8907 10.5887C47.8035 10.1829 47.798 9.76381 47.8745 9.35586C47.951 8.94791 48.1079 8.55928 48.3362 8.21264C48.5645 7.866 48.8595 7.56829 49.2041 7.33688C49.5486 7.10547 49.9358 6.945 50.3431 6.86482C50.7503 6.78464 51.1694 6.78637 51.576 6.86989C68.82 10.1099 84.318 24.7499 84.318 46.2119C84.318 55.4339 80.124 62.6759 75.228 68.1899C71.718 72.1379 67.704 75.3479 64.476 77.8019H74.292C75.0877 77.8019 75.8507 78.118 76.4133 78.6806C76.9759 79.2432 77.292 80.0062 77.292 80.8019C77.292 81.5975 76.9759 82.3606 76.4133 82.9232C75.8507 83.4858 75.0877 83.8019 74.292 83.8019H56.292C55.4964 83.8019 54.7333 83.4858 54.1707 82.9232C53.6081 82.3606 53.292 81.5975 53.292 80.8019V62.8019C53.292 62.0062 53.6081 61.2432 54.1707 60.6806C54.7333 60.118 55.4964 59.8019 56.292 59.8019C57.0877 59.8019 57.8507 60.118 58.4133 60.6806C58.9759 61.2432 59.292 62.0062 59.292 62.8019V73.8719H59.304C62.73 71.2799 66.924 68.1239 70.548 64.0319C74.838 59.2139 78.066 53.3819 78.066 46.2119Z" fill="#635BFF"/>
</svg>
