<svg width="24" height="24" viewBox="0 0 24 24" fill="none" xmlns="http://www.w3.org/2000/svg">
<path d="M7.05085 19.4107H5.99999V9.59988L11.1771 2.2336C11.4655 1.82387 11.8833 1.52302 12.3634 1.37939C12.8434 1.23576 13.3578 1.25769 13.8238 1.44166C14.2899 1.62563 14.6806 1.96095 14.9331 2.39374C15.1855 2.82652 15.2852 3.33163 15.216 3.82788L14.8286 6.61874H18.24C19.7314 6.61874 22.716 8.11017 22.716 11.093C22.716 14.0759 19.716 20.9022 16.5428 20.9022C12.3651 20.9022 8.79085 19.9079 7.05085 19.4107ZM1.28571 9.21417C1.28571 7.91131 2.34171 6.85702 3.64285 6.85702C4.94571 6.85702 5.99999 7.91302 5.99999 9.21417V19.0713C5.99999 20.3742 4.94399 21.4285 3.64285 21.4285C2.33999 21.4285 1.28571 20.3725 1.28571 19.0713V9.21417Z" stroke="#368186" stroke-width="2" stroke-linecap="round" stroke-linejoin="round"/>
</svg>
