<svg width="20" height="20" viewBox="0 0 20 20" fill="none" xmlns="http://www.w3.org/2000/svg">
<path d="M16.2691 18.325H3.73996C2.48746 18.325 1.52079 17.38 1.68496 16.1383L1.77996 15.4142C1.95246 14.4142 2.86746 13.785 3.86079 13.5692L9.93996 12.5H10.06L16.1391 13.5692C17.1491 13.8025 18.0475 14.3967 18.22 15.4142L18.315 16.1475C18.4791 17.3892 17.5125 18.3333 16.26 18.3333L16.2691 18.325Z" fill="black" fill-opacity="0.16"/>
<path d="M16.2691 18.325H3.73996C2.48746 18.325 1.52079 17.38 1.68496 16.1383L1.77996 15.4142C1.95246 14.4142 2.86746 13.785 3.86079 13.5692L9.93996 12.5H10.06L16.1391 13.5692C17.1491 13.8025 18.0475 14.3967 18.22 15.4142L18.315 16.1475C18.4791 17.3892 17.5125 18.3333 16.26 18.3333L16.2691 18.325ZM14.1666 5.83333C14.1666 6.9384 13.7276 7.99821 12.9462 8.77961C12.1648 9.56101 11.105 10 9.99996 10C8.89489 10 7.83508 9.56101 7.05368 8.77961C6.27228 7.99821 5.83329 6.9384 5.83329 5.83333C5.83329 4.72827 6.27228 3.66846 7.05368 2.88706C7.83508 2.10565 8.89489 1.66667 9.99996 1.66667C11.105 1.66667 12.1648 2.10565 12.9462 2.88706C13.7276 3.66846 14.1666 4.72827 14.1666 5.83333Z" stroke="#377F7E" stroke-width="0.5" stroke-linecap="round" stroke-linejoin="round"/>
</svg>
