<svg width="76" height="76" viewBox="0 0 76 76" fill="none" xmlns="http://www.w3.org/2000/svg">
<path d="M24.875 0.5C15.5 0.5 8 8 8 17.375V19.25C3.8375 19.25 0.5 22.5875 0.5 26.75V60.5C0.5 64.6625 3.8375 68 8 68H25.7C31.175 72.8375 38.225 75.5 45.5 75.5C53.4565 75.5 61.0871 72.3393 66.7132 66.7132C72.3393 61.0871 75.5 53.4565 75.5 45.5C75.5 37.5435 72.3393 29.9129 66.7132 24.2868C61.0871 18.6607 53.4565 15.5 45.5 15.5C44.225 15.5 42.95 15.6125 41.75 15.8C40.85 7.1375 33.575 0.5 24.875 0.5ZM24.875 8C27.3614 8 29.746 8.98772 31.5041 10.7459C33.2623 12.504 34.25 14.8886 34.25 17.375V19.25H15.5V17.375C15.5 14.8886 16.4877 12.504 18.2459 10.7459C20.004 8.98772 22.3886 8 24.875 8ZM45.5 23C51.4674 23 57.1903 25.3705 61.4099 29.5901C65.6295 33.8097 68 39.5326 68 45.5C68 51.4674 65.6295 57.1903 61.4099 61.4099C57.1903 65.6295 51.4674 68 45.5 68C39.5326 68 33.8097 65.6295 29.5901 61.4099C25.3705 57.1903 23 51.4674 23 45.5C23 39.5326 25.3705 33.8097 29.5901 29.5901C33.8097 25.3705 39.5326 23 45.5 23ZM41.75 30.5V49.25L55.4 57.4625L58.325 52.625L47.375 46.0625V30.5H41.75Z" fill="#635BFF"/>
</svg>
