<svg width="18" height="18" viewBox="0 0 18 18" fill="none" xmlns="http://www.w3.org/2000/svg">
<path opacity="0.5" d="M1 9.1632C1 7.332 1 6.4168 1.416 5.6584C1.8304 4.8992 2.5896 4.4288 4.1072 3.4864L5.7072 2.4936C7.3112 1.4976 8.1136 1 9 1C9.8864 1 10.688 1.4976 12.2928 2.4936L13.8928 3.4864C15.4104 4.4288 16.1696 4.8992 16.5848 5.6584C17 6.4168 17 7.332 17 9.1624V10.38C17 13.5 17 15.0608 16.0624 16.0304C15.1256 17 13.6168 17 10.6 17H7.4C4.3832 17 2.8744 17 1.9376 16.0304C1 15.0608 1 13.5008 1 10.38V9.1632Z" stroke="#6B7280" stroke-width="1.25"/>
<path d="M9.00001 11.3999V13.7999" stroke="#6B7280" stroke-width="1.25" stroke-linecap="round"/>
</svg>
