<svg width="40" height="41" viewBox="0 0 40 41" fill="none" xmlns="http://www.w3.org/2000/svg">
<path d="M0 20.5C0 9.45431 8.95431 0.5 20 0.5C31.0457 0.5 40 9.45431 40 20.5C40 31.5457 31.0457 40.5 20 40.5C8.95431 40.5 0 31.5457 0 20.5Z" fill="#368186" fill-opacity="0.1"/>
<path d="M27.7362 30.0143H13.4171C11.9857 30.0143 10.8809 28.9343 11.0685 27.5152L11.1771 26.6876C11.3743 25.5448 12.42 24.8257 13.5552 24.579L20.5028 23.3571H20.64L27.5876 24.579C28.7419 24.8457 29.7685 25.5248 29.9657 26.6876L30.0743 27.5257C30.2619 28.9448 29.1571 30.0238 27.7257 30.0238L27.7362 30.0143Z" fill="black" fill-opacity="0.16"/>
<path d="M27.7362 30.0143H13.4171C11.9857 30.0143 10.8809 28.9343 11.0685 27.5152L11.1771 26.6876C11.3743 25.5448 12.42 24.8257 13.5552 24.579L20.5028 23.3571H20.64L27.5876 24.579C28.7419 24.8457 29.7685 25.5248 29.9657 26.6876L30.0743 27.5257C30.2619 28.9448 29.1571 30.0238 27.7257 30.0238L27.7362 30.0143ZM25.3333 15.7381C25.3333 17.001 24.8316 18.2122 23.9386 19.1053C23.0455 19.9983 21.8343 20.5 20.5714 20.5C19.3085 20.5 18.0973 19.9983 17.2042 19.1053C16.3112 18.2122 15.8095 17.001 15.8095 15.7381C15.8095 14.4752 16.3112 13.2639 17.2042 12.3709C18.0973 11.4779 19.3085 10.9762 20.5714 10.9762C21.8343 10.9762 23.0455 11.4779 23.9386 12.3709C24.8316 13.2639 25.3333 14.4752 25.3333 15.7381Z" stroke="#377F7E" stroke-width="0.5" stroke-linecap="round" stroke-linejoin="round"/>
</svg>
